<?xml version="1.0" standalone="no"?>
<!DOCTYPE svg PUBLIC "-//W3C//DTD SVG 20010904//EN"
 "http://www.w3.org/TR/2001/REC-SVG-20010904/DTD/svg10.dtd">
<svg version="1.0" xmlns="http://www.w3.org/2000/svg"
 width="1608.000000pt" height="1608.000000pt" viewBox="0 0 1608.000000 1608.000000"
 preserveAspectRatio="xMidYMid meet">
<metadata>
Created by potrace 1.14, written by Peter Selinger 2001-2017
</metadata>
<g transform="translate(0.000000,1608.000000) scale(0.100000,-0.100000)"
fill="#000000" stroke="none">
<path d="M15845 16064 c-22 -9 -49 -17 -60 -18 -11 -2 -33 -8 -48 -15 -16 -6
-32 -11 -37 -11 -5 0 -30 -7 -56 -16 -25 -9 -54 -17 -63 -19 -9 -2 -63 -18
-121 -36 -58 -17 -113 -32 -122 -32 -10 -1 -18 -4 -18 -7 0 -4 -6 -7 -12 -7
-29 -2 -118 -28 -118 -35 0 -4 -6 -5 -14 -2 -8 3 -17 0 -21 -5 -3 -6 -10 -9
-15 -6 -5 3 -20 0 -32 -6 -13 -7 -32 -14 -43 -15 -20 -3 -146 -39 -175 -51 -8
-4 -22 -7 -30 -8 -8 0 -44 -10 -80 -22 -36 -11 -78 -24 -95 -28 -16 -5 -34 -9
-40 -11 -5 -1 -32 -9 -59 -18 -27 -8 -53 -13 -58 -10 -4 3 -8 0 -8 -7 0 -7 -3
-9 -7 -6 -3 4 -11 3 -17 -2 -6 -5 -36 -14 -66 -22 -30 -7 -57 -14 -60 -14 -3
-1 -12 -4 -20 -8 -17 -7 -100 -31 -115 -33 -5 0 -17 -4 -25 -7 -8 -3 -42 -13
-75 -22 -33 -9 -67 -19 -75 -22 -8 -3 -24 -8 -34 -10 -11 -2 -40 -10 -65 -19
-25 -9 -57 -18 -70 -20 -14 -3 -28 -7 -33 -10 -4 -3 -16 -7 -25 -9 -10 -1 -58
-15 -108 -30 -49 -15 -106 -31 -125 -36 -54 -15 -58 -16 -170 -49 -58 -17
-109 -32 -115 -33 -5 -2 -16 -6 -22 -10 -7 -5 -17 -5 -23 -2 -5 3 -10 1 -10
-5 0 -6 -4 -9 -9 -6 -4 3 -31 -3 -60 -13 -28 -11 -51 -17 -51 -15 0 2 -16 -2
-35 -10 -19 -8 -35 -13 -35 -11 0 3 -17 -2 -37 -10 -32 -12 -88 -29 -138 -41
-29 -7 -192 -55 -205 -61 -8 -3 -22 -7 -30 -9 -20 -4 -37 -8 -90 -24 -25 -8
-47 -14 -50 -14 -3 -1 -11 -5 -17 -9 -7 -5 -13 -6 -13 -4 0 3 -21 -2 -47 -10
-27 -8 -79 -23 -118 -34 -38 -11 -77 -22 -85 -26 -18 -7 -26 -9 -62 -16 -15
-3 -32 -8 -38 -12 -5 -3 -20 -8 -32 -10 -12 -3 -43 -12 -70 -21 -49 -16 -49
-16 -29 -35 11 -10 25 -19 31 -19 5 0 9 -4 7 -8 -1 -4 18 -27 43 -51 44 -41
329 -318 626 -608 81 -79 149 -143 153 -144 3 0 23 -20 43 -43 l37 -42 -123
-127 c-68 -70 -123 -127 -121 -127 1 0 -39 -42 -89 -94 -50 -51 -158 -164
-241 -251 -148 -156 -206 -217 -388 -406 -51 -52 -153 -159 -227 -238 -74 -78
-173 -182 -220 -230 -47 -49 -152 -159 -235 -246 -82 -86 -180 -189 -217 -227
-38 -39 -68 -76 -68 -81 0 -6 -3 -8 -6 -5 -3 4 -30 -21 -60 -53 -30 -33 -74
-79 -97 -103 -23 -24 -98 -102 -167 -175 -69 -72 -169 -176 -222 -231 -53 -55
-95 -100 -94 -100 1 0 -49 -52 -111 -116 -62 -65 -113 -121 -113 -125 0 -5 -7
-9 -15 -9 -8 0 -15 -4 -15 -8 0 -5 -49 -60 -110 -122 -60 -62 -110 -115 -110
-116 0 -1 -37 -40 -82 -87 -105 -107 -325 -337 -323 -337 1 0 -47 -51 -306
-319 -75 -78 -135 -141 -133 -141 1 0 -39 -42 -90 -94 -168 -173 -296 -306
-293 -306 1 0 -74 -78 -167 -175 -134 -139 -171 -172 -181 -162 -7 7 -27 22
-43 35 -87 67 -343 322 -622 622 -47 50 -109 116 -137 146 -29 31 -53 57 -53
58 0 2 -19 23 -42 48 -56 58 -152 161 -258 278 -47 51 -117 126 -156 166 -39
41 -70 74 -68 74 1 0 -59 62 -133 138 -74 75 -194 200 -266 276 -73 76 -154
162 -181 190 -26 28 -62 67 -80 86 -17 19 -47 47 -65 63 -18 15 -30 27 -26 27
3 0 -29 35 -72 78 -43 43 -112 116 -153 162 -86 95 -251 263 -295 300 -80 67
-219 153 -229 143 -3 -4 -6 -1 -6 6 0 7 -7 11 -15 8 -8 -4 -17 -2 -19 2 -19
31 -294 63 -338 40 -12 -6 -18 -6 -18 1 0 7 -6 7 -17 0 -10 -5 -45 -21 -78
-35 -33 -15 -94 -47 -135 -73 -85 -52 -82 -50 -133 -93 -20 -17 -37 -27 -37
-23 0 4 -6 1 -12 -8 -7 -8 -51 -48 -98 -89 -138 -118 -460 -449 -460 -471 0
-6 -3 -9 -6 -5 -4 3 -27 -20 -53 -51 -25 -31 -53 -64 -61 -73 -8 -8 -33 -37
-55 -64 -22 -27 -46 -54 -53 -62 -7 -7 -10 -13 -6 -13 4 0 -2 -8 -12 -17 -11
-10 -38 -40 -59 -68 -50 -62 -91 -107 -182 -202 -40 -42 -73 -80 -73 -86 0 -6
-2 -8 -5 -5 -3 3 -43 -34 -88 -82 -45 -48 -90 -91 -100 -95 -10 -4 -16 -9 -14
-11 2 -3 -33 -43 -79 -90 -46 -47 -84 -87 -84 -88 0 -4 -97 -108 -197 -213
-46 -47 -83 -90 -83 -94 0 -5 -7 -9 -15 -9 -8 0 -15 -3 -15 -7 0 -5 -54 -64
-120 -133 -66 -68 -120 -128 -120 -133 0 -4 -4 -5 -10 -2 -5 3 -10 3 -10 -2 0
-4 -28 -38 -63 -74 -34 -37 -105 -112 -157 -168 -52 -56 -120 -128 -150 -160
-30 -32 -109 -115 -175 -186 -66 -70 -161 -170 -210 -221 -50 -52 -90 -94 -88
-94 2 0 -103 -108 -378 -387 -115 -117 -209 -217 -209 -223 0 -5 -7 -10 -15
-10 -8 0 -15 -3 -15 -7 0 -5 -27 -37 -60 -73 -33 -35 -60 -68 -60 -73 0 -4 -4
-5 -10 -2 -5 3 -10 2 -10 -3 0 -5 -41 -52 -91 -103 -50 -52 -105 -110 -122
-129 -17 -19 -31 -33 -32 -30 0 3 -17 -13 -37 -35 -55 -61 -208 -214 -208
-208 0 3 -16 -15 -36 -39 -21 -23 -41 -42 -45 -41 -4 2 -11 -6 -14 -17 -4 -11
-11 -20 -16 -20 -6 0 -7 -4 -4 -10 3 -5 2 -10 -4 -10 -5 0 -33 -39 -62 -87
-62 -105 -99 -163 -117 -182 -18 -19 -13 -452 6 -459 6 -2 12 -10 12 -18 0 -8
4 -14 8 -14 5 0 42 -48 83 -107 101 -146 239 -280 263 -256 3 3 6 2 6 -4 0
-20 128 -55 205 -57 22 -1 43 -5 47 -11 5 -7 8 -7 8 0 0 6 24 11 53 11 94 2
268 45 297 74 3 3 11 6 19 8 17 4 73 42 83 57 4 5 8 6 8 1 0 -5 22 13 50 41
27 28 52 48 55 45 3 -3 5 0 5 6 0 6 12 23 28 39 15 15 48 53 74 83 60 71 182
203 398 430 30 32 105 111 165 176 61 64 130 138 155 164 25 26 92 97 150 159
58 61 168 176 245 255 266 272 517 535 670 701 44 48 103 111 130 140 28 29
100 106 160 170 61 65 183 193 272 284 213 219 298 307 375 392 34 39 86 94
113 124 28 29 82 88 120 130 39 43 95 104 125 136 30 32 98 104 150 160 169
182 394 401 422 412 19 7 110 -65 256 -200 58 -54 109 -99 113 -101 5 -2 9 -7
9 -10 0 -4 73 -82 163 -173 89 -91 191 -197 226 -235 55 -59 158 -170 316
-339 22 -23 90 -95 150 -160 61 -65 148 -157 195 -205 108 -111 218 -228 295
-314 33 -38 71 -80 85 -96 14 -15 48 -53 75 -84 28 -31 69 -76 93 -100 23 -25
42 -47 42 -49 0 -6 206 -222 326 -342 117 -117 245 -234 310 -285 21 -17 46
-37 55 -44 38 -31 150 -106 159 -106 5 0 10 -5 10 -10 0 -6 3 -9 8 -8 4 1 23
-6 42 -17 19 -11 37 -20 40 -20 3 -1 21 -8 41 -17 20 -9 52 -18 70 -21 19 -3
39 -6 44 -7 6 -1 12 -1 15 0 16 6 60 4 60 -3 0 -4 5 -5 12 -1 6 4 30 8 52 9
48 2 156 34 156 46 0 5 3 9 8 8 15 -2 52 14 52 23 0 5 5 6 10 3 6 -3 10 -2 10
3 0 5 11 14 25 20 22 10 159 108 191 137 6 6 40 35 75 65 70 59 385 372 464
461 131 146 173 193 213 235 23 25 42 47 42 48 0 8 113 128 415 441 211 219
220 228 385 405 58 62 130 138 160 170 30 32 104 111 165 176 60 66 426 434
812 819 387 385 703 703 703 706 0 3 28 35 63 70 34 36 89 97 122 135 33 38
65 74 70 80 6 6 33 37 60 69 111 128 229 248 712 726 232 230 409 413 469 484
21 26 47 57 57 69 10 11 26 30 35 41 10 11 28 36 42 55 13 19 28 38 33 41 4 3
45 -29 89 -72 45 -44 82 -79 83 -79 1 0 31 -28 67 -62 35 -35 120 -115 187
-178 68 -63 149 -140 181 -170 31 -30 121 -116 200 -190 79 -74 152 -144 164
-155 12 -11 20 -19 19 -17 -1 2 5 18 12 37 8 18 11 35 8 39 -4 3 -1 6 4 6 6 0
10 8 8 18 -1 9 1 24 5 32 5 8 10 29 13 45 3 17 8 39 11 50 3 11 10 38 16 60
10 39 16 61 24 100 3 11 21 83 41 160 19 77 37 147 38 155 1 8 6 21 10 28 5 6
6 12 3 12 -2 0 2 24 10 53 26 91 36 135 37 155 0 6 4 12 9 12 5 0 7 4 4 9 -3
4 -1 23 5 42 5 19 12 41 14 49 18 74 23 105 20 109 -3 2 0 10 6 17 9 12 19 48
22 87 1 9 5 17 9 17 4 0 7 3 6 8 -1 4 3 25 7 47 13 56 12 55 15 58 1 1 3 9 5
17 1 9 12 54 24 101 12 48 24 95 26 105 2 11 12 48 21 84 9 36 16 71 17 78 0
6 3 12 6 12 4 0 7 10 9 23 1 12 11 58 22 102 11 44 23 88 25 98 2 10 6 26 9
35 3 9 7 28 10 42 5 25 7 33 26 105 6 22 13 51 16 65 2 14 11 48 19 75 8 28
16 61 18 75 3 14 10 45 17 70 7 25 14 52 15 60 2 8 4 15 5 15 2 0 3 6 13 55 3
14 13 51 21 83 9 32 16 67 16 77 0 11 4 20 8 20 4 0 8 8 9 18 3 43 8 62 16 62
4 0 6 4 3 8 -3 5 0 26 6 48 7 21 12 41 13 44 18 76 27 114 27 128 1 6 4 12 8
12 3 0 7 10 7 23 2 29 7 49 16 65 5 6 6 12 3 12 -2 0 4 30 14 68 10 37 21 78
24 92 5 25 7 34 26 105 6 22 13 51 16 65 3 14 12 50 20 80 8 30 17 64 18 75 2
11 4 20 5 20 8 0 15 55 18 148 5 119 6 116 -62 91z"/>
<path d="M13942 11747 c-23 -17 -44 -40 -47 -49 -4 -10 -10 -18 -15 -18 -11 0
-90 -81 -90 -92 0 -4 -4 -8 -10 -8 -5 0 -40 -32 -77 -71 -38 -39 -97 -102
-133 -139 -110 -114 -231 -243 -320 -340 -47 -51 -100 -108 -117 -127 -18 -18
-33 -36 -33 -38 0 -3 -20 -25 -44 -50 -25 -25 -43 -45 -41 -45 1 0 -9 -13 -24
-29 -15 -16 -38 -43 -52 -61 -13 -17 -34 -43 -47 -58 -12 -15 -28 -34 -35 -42
-9 -11 -12 -986 -12 -4507 l0 -4493 40 0 c303 -3 2039 1 2042 4 3 3 5 2092 5
4643 0 3868 -2 4642 -14 4663 -21 40 -52 74 -223 245 -177 177 -345 335 -357
335 -4 0 -8 7 -8 15 0 8 -6 15 -13 15 -7 0 -19 8 -28 18 -8 9 -39 37 -69 62
-29 25 -69 60 -87 78 -19 17 -36 32 -39 32 -2 0 -15 9 -27 20 -12 11 -36 31
-53 45 l-32 25 -40 -33z"/>
<path d="M12410 10125 c-16 -16 -200 -191 -200 -189 0 4 -319 -319 -330 -335
-8 -12 -18 -21 -22 -21 -4 0 -25 -19 -47 -42 -22 -24 -93 -98 -158 -164 -289
-297 -507 -525 -692 -723 -28 -30 -51 -58 -51 -63 0 -4 -6 -8 -14 -8 -8 0 -16
-4 -18 -10 -3 -9 -86 -102 -188 -210 -30 -32 -77 -84 -105 -115 -27 -32 -67
-75 -87 -96 -21 -22 -38 -41 -38 -43 0 -2 -11 -17 -25 -32 -62 -73 -75 -90
-76 -99 0 -5 -2 -18 -4 -27 -2 -10 1 -18 6 -18 6 0 7 -6 2 -12 -10 -17 -10
-308 0 -308 5 0 5 -6 0 -12 -10 -17 -10 -308 0 -308 5 0 5 -6 0 -12 -10 -17
-10 -308 0 -308 5 0 5 -6 0 -12 -10 -17 -10 -308 0 -308 5 0 5 -6 0 -12 -10
-17 -10 -308 0 -308 5 0 5 -6 0 -12 -11 -18 -10 -308 1 -308 5 0 4 -6 -1 -12
-11 -15 -11 -177 -1 -194 4 -6 4 -14 0 -18 -11 -11 -9 -110 2 -118 7 -5 7 -8
1 -8 -12 0 -14 -318 -2 -336 3 -6 3 -14 -1 -18 -11 -11 -9 -110 2 -118 7 -5 7
-8 1 -8 -12 0 -14 -318 -2 -336 3 -6 3 -14 -1 -18 -11 -11 -9 -110 2 -118 7
-5 7 -8 1 -8 -12 0 -14 -318 -2 -336 3 -6 3 -14 -1 -18 -11 -11 -9 -110 2
-118 7 -5 7 -8 1 -8 -12 0 -14 -318 -2 -336 3 -6 3 -14 -1 -18 -11 -11 -9
-110 2 -118 7 -5 7 -8 1 -8 -12 0 -14 -318 -2 -336 3 -6 3 -14 -1 -18 -11 -11
-9 -110 2 -118 7 -5 7 -8 1 -8 -12 0 -14 -318 -2 -336 3 -6 3 -14 -1 -18 -11
-11 -9 -110 2 -118 7 -5 7 -8 1 -8 -12 0 -14 -318 -2 -336 3 -6 3 -14 -1 -18
-11 -11 -9 -110 2 -118 7 -5 7 -8 1 -8 -12 0 -14 -318 -2 -336 3 -6 3 -14 0
-18 -12 -12 -10 -116 1 -116 8 0 8 -3 1 -8 -7 -4 -11 -54 -10 -124 l0 -118 25
0 c40 -1 1949 -1 2010 0 l55 0 0 72 c-1 40 -4 78 -8 85 -4 6 -4 14 0 16 10 6
9 129 0 144 -4 7 -4 14 1 16 10 7 9 108 -1 125 -5 6 -4 12 1 12 10 0 10 30 -1
46 -3 6 -3 14 0 18 11 11 11 149 0 163 -5 7 -6 13 -1 13 13 0 11 123 -1 132
-7 5 -7 8 0 8 12 0 14 149 2 168 -5 6 -5 12 0 12 10 0 10 71 0 87 -4 6 -4 14
0 16 10 6 9 129 0 144 -4 5 -3 13 0 17 11 11 9 106 -2 106 -6 0 -6 3 0 8 12 8
13 151 2 170 -5 6 -4 12 1 12 10 0 10 30 -1 46 -3 6 -3 14 0 18 11 11 11 149
0 164 -6 7 -6 12 0 12 11 0 11 29 0 47 -4 6 -4 14 0 16 10 6 10 168 0 184 -4
6 -4 14 0 16 10 6 9 129 0 144 -4 7 -4 14 1 16 10 7 9 108 -1 125 -5 6 -4 12
1 12 10 0 10 30 -1 46 -3 6 -3 14 0 18 11 11 11 149 0 164 -5 6 -6 12 -1 12
13 0 11 123 -1 132 -7 5 -7 8 0 8 12 0 14 149 2 168 -5 6 -5 12 0 12 10 0 10
71 0 87 -4 6 -4 14 0 16 10 6 9 129 0 144 -4 5 -3 13 0 17 11 11 9 106 -2 106
-6 0 -6 3 0 8 12 8 13 151 2 169 -5 7 -4 13 1 13 10 0 10 30 -1 46 -3 6 -3 14
0 18 11 11 11 149 0 164 -6 7 -6 12 0 12 11 0 11 29 0 47 -4 6 -4 14 0 16 10
6 10 168 0 184 -4 6 -4 14 0 16 10 6 9 129 0 144 -4 7 -4 14 1 16 10 7 9 108
-1 125 -5 6 -4 12 1 12 10 0 10 30 -1 46 -3 6 -3 14 0 18 11 11 11 149 0 164
-5 6 -6 12 -1 12 13 0 11 123 -1 132 -7 5 -7 8 0 8 12 0 14 149 2 168 -5 6 -5
12 0 12 10 0 10 71 0 87 -4 6 -4 14 0 16 10 6 9 129 0 144 -4 5 -3 13 0 17 11
11 9 106 -2 106 -6 0 -6 3 0 8 12 8 13 151 2 170 -5 6 -4 12 1 12 10 0 10 30
-1 46 -3 6 -3 14 0 18 11 11 11 149 0 164 -6 7 -6 12 0 12 11 0 11 29 0 47 -4
6 -4 14 0 16 10 6 10 168 0 184 -4 6 -4 14 0 16 10 6 9 129 0 144 -4 7 -4 14
1 16 10 7 9 108 -1 125 -5 6 -4 12 1 12 10 0 10 30 -1 46 -3 6 -3 14 0 18 11
11 11 149 0 164 -5 6 -6 12 -1 12 13 0 11 123 -1 132 -7 5 -7 8 0 8 12 0 14
149 2 168 -5 6 -4 12 0 12 11 0 10 50 0 68 -5 6 -4 12 1 12 10 0 10 30 -1 46
-3 6 -3 14 0 18 11 11 11 149 0 164 -5 6 -6 12 -1 12 13 0 11 123 -1 132 -7 5
-7 8 0 8 12 0 14 149 2 168 -5 6 -5 12 0 12 10 0 10 71 0 87 -4 6 -4 14 0 16
10 6 9 129 0 144 -4 5 -3 13 0 17 11 11 9 106 -2 106 -6 0 -6 3 0 8 12 8 13
151 2 170 -5 6 -4 12 1 12 10 0 10 30 -1 46 -3 6 -3 14 0 18 11 11 11 149 0
164 -6 7 -6 12 0 12 11 0 11 29 0 46 -3 6 -3 14 0 18 12 12 9 266 -2 266 -6 0
-17 -7 -25 -15z"/>
<path d="M5376 8935 c-3 -8 -1 -15 5 -15 6 0 7 -5 3 -12 -8 -13 -10 -7315 -2
-7324 4 -3 1751 -8 2023 -4 l30 0 0 2624 c-1 2369 -2 2626 -17 2647 -8 13 -33
43 -54 65 -22 23 -79 86 -129 140 -49 54 -108 117 -130 140 -22 23 -85 90
-140 149 -113 121 -148 158 -354 373 -80 85 -181 189 -223 232 -43 44 -78 85
-78 91 0 7 -3 10 -6 6 -6 -6 -94 83 -94 96 0 4 -7 7 -15 7 -8 0 -15 5 -15 11
0 13 -723 736 -766 767 -27 18 -33 19 -38 7z"/>
<path d="M4912 8897 c-59 -54 -612 -610 -747 -751 -93 -98 -195 -204 -225
-236 -30 -31 -102 -108 -160 -169 -58 -62 -127 -137 -155 -166 -27 -29 -84
-89 -125 -135 -41 -45 -88 -96 -105 -114 -16 -18 -67 -73 -112 -122 -45 -49
-100 -109 -122 -133 -23 -24 -41 -48 -41 -53 0 -5 -4 -6 -10 -3 -5 3 -10 1
-10 -5 0 -10 -33 -49 -102 -122 -15 -15 -25 -28 -22 -28 3 0 -11 -17 -30 -37
-20 -21 -36 -43 -36 -50 0 -6 -5 -13 -11 -15 -8 -3 -11 -699 -11 -2587 0
-1420 2 -2585 5 -2587 7 -8 2038 -6 2046 1 11 11 7 7325 -4 7325 -5 -1 -16 -6
-23 -13z"/>
<path d="M9869 7498 c-60 -43 -144 -113 -203 -170 -27 -27 -52 -48 -57 -48 -4
0 -11 -9 -14 -21 -4 -11 -9 -18 -11 -16 -3 3 -31 -23 -62 -56 -182 -194 -410
-398 -434 -390 -5 2 -8 -1 -8 -5 0 -5 -39 -29 -87 -53 -49 -24 -91 -48 -95
-54 -4 -5 -8 -7 -8 -3 0 4 -22 -1 -48 -11 -27 -11 -64 -22 -83 -26 -19 -3 -43
-8 -54 -10 -11 -2 -36 -7 -55 -10 -19 -3 -46 -8 -60 -11 -36 -6 -288 -7 -335
-1 -81 11 -160 20 -177 21 -10 0 -18 3 -18 7 0 3 -10 5 -22 5 -13 -1 -27 0
-33 3 -5 3 -16 6 -25 7 -8 1 -36 6 -62 12 -27 5 -48 7 -49 3 -5 -38 -2 -5084
3 -5087 5 -4 1501 -7 1978 -4 l75 0 0 437 c0 241 -4 443 -8 450 -4 6 -4 14 0
16 10 6 10 1888 1 1903 -4 6 -4 14 0 18 8 9 10 3126 1 3126 -3 0 -26 -14 -50
-32z"/>
<path d="M2433 6297 c-4 -7 -15 -18 -25 -23 -31 -17 -268 -237 -268 -249 0 -9
-307 -325 -316 -325 -3 0 -17 -11 -32 -25 -47 -44 -56 -51 -122 -96 -36 -24
-67 -46 -70 -49 -3 -3 -11 -6 -18 -8 -7 -1 -31 -14 -52 -27 -22 -14 -40 -23
-40 -21 0 3 -24 -6 -52 -18 -58 -26 -156 -56 -203 -63 -16 -2 -37 -6 -45 -9
-54 -20 -323 -33 -400 -20 -19 3 -55 8 -80 11 -25 2 -56 7 -70 9 -14 3 -47 7
-75 11 -85 10 -119 15 -142 20 -17 4 -23 1 -24 -12 -5 -107 -2 -3816 3 -3820
6 -3 1859 -6 2038 -3 13 0 15 268 15 2359 0 1298 -3 2362 -7 2366 -3 4 -10 0
-15 -8z"/>
<path d="M8997 1244 c-4 -4 -24 -8 -44 -8 -37 -2 -103 -32 -103 -48 0 -4 -6
-8 -13 -8 -18 0 -39 -45 -43 -90 -11 -136 -18 -190 -24 -197 -2 -2 -3 -6 -4
-10 -4 -18 -48 -127 -58 -147 -7 -11 -13 -23 -14 -26 -12 -35 -17 -56 -15 -59
2 -2 -1 -7 -6 -10 -7 -5 -34 -55 -38 -71 -2 -7 -43 -97 -76 -162 -15 -32 -25
-58 -22 -58 3 0 -1 -8 -9 -17 -17 -20 -32 -54 -30 -65 1 -5 -2 -8 -7 -8 -5 0
-13 -9 -16 -20 -3 -11 -13 -20 -21 -20 -8 0 -14 -4 -14 -9 0 -5 -23 -18 -50
-30 -55 -24 -76 -55 -61 -93 14 -36 43 -57 84 -60 20 -1 37 -5 37 -8 0 -8 197
-5 257 4 29 4 56 12 59 17 3 5 9 7 14 4 13 -8 50 45 50 72 0 32 -25 55 -72 68
-5 2 -11 4 -15 5 -5 1 -11 2 -14 2 -20 -3 14 103 36 112 8 3 92 4 187 3 188
-3 221 -11 230 -61 5 -25 -12 -56 -31 -56 -6 0 -11 -5 -11 -11 0 -5 -4 -8 -9
-5 -4 3 -18 -3 -30 -13 -33 -29 -15 -111 25 -111 8 0 14 -4 14 -8 0 -10 3 -10
82 -16 32 -3 62 -7 67 -10 5 -4 12 -2 16 3 3 6 15 7 28 2 26 -9 219 -7 292 3
101 13 151 44 161 99 6 37 -37 75 -78 68 -5 0 -8 4 -8 9 0 6 -6 10 -14 10 -11
0 -78 116 -82 140 -1 9 -39 85 -44 90 -3 3 -12 24 -20 48 -7 23 -19 47 -27 53
-7 6 -13 17 -13 23 0 6 -16 43 -35 81 -19 39 -35 76 -35 83 0 6 -4 12 -10 12
-5 0 -10 9 -10 20 0 10 -8 24 -17 29 -10 6 -14 11 -10 11 5 0 0 16 -12 36 -12
19 -21 42 -21 50 0 8 -3 14 -8 14 -8 0 -23 26 -42 73 -7 15 -16 27 -21 27 -5
0 -9 6 -9 14 0 8 -7 22 -16 30 -8 9 -13 16 -10 16 8 0 -31 47 -87 102 -26 27
-54 48 -62 48 -8 0 -15 5 -15 11 0 6 -7 9 -15 5 -8 -3 -15 -1 -15 3 0 5 -8 8
-17 7 -10 -2 -21 1 -24 6 -3 4 -8 5 -12 2z"/>
<path d="M12206 1243 c-2 -2 -15 -6 -30 -8 -14 -3 -38 -8 -53 -11 -16 -4 -205
-8 -421 -10 -329 -3 -397 -6 -422 -19 -17 -9 -30 -21 -31 -28 0 -6 -3 -25 -5
-40 -5 -27 14 -57 35 -57 6 0 11 -4 11 -10 0 -5 3 -9 8 -9 26 4 42 -4 48 -26
3 -14 9 -25 13 -25 4 0 8 -6 8 -12 0 -7 3 -33 7 -58 3 -25 9 -88 12 -140 3
-52 8 -97 10 -99 2 -2 -1 -10 -7 -18 -6 -7 -8 -13 -3 -13 17 0 2 -275 -21
-405 -2 -11 -4 -23 -4 -28 -1 -11 -57 -67 -68 -67 -22 0 -51 -40 -46 -62 6
-24 33 -68 33 -54 0 5 6 4 13 -2 6 -6 31 -9 55 -9 23 1 42 -2 42 -6 0 -5 5 -5
10 -2 14 9 155 9 169 1 6 -4 11 -4 11 1 0 10 52 9 68 -1 7 -4 12 -4 12 1 0 10
52 9 68 -1 7 -4 12 -4 12 1 0 10 52 9 68 -1 7 -4 12 -4 12 1 0 10 52 9 68 -1
7 -4 12 -4 12 1 0 10 52 9 68 -1 7 -4 12 -4 12 1 0 10 52 9 68 -1 7 -4 12 -3
12 1 0 5 17 7 38 5 88 -7 127 -11 127 -12 0 -8 51 -7 61 1 8 6 14 8 14 3 0
-11 28 28 28 40 0 5 6 12 14 17 7 5 13 12 14 16 0 4 10 30 23 58 13 27 25 56
26 65 2 8 4 15 5 15 4 0 11 46 13 92 2 42 -2 58 -19 78 -23 27 -94 47 -94 26
0 -6 -7 -11 -15 -11 -8 0 -15 -6 -15 -14 0 -7 -7 -19 -15 -26 -8 -7 -12 -16
-9 -21 3 -5 0 -9 -5 -9 -6 0 -11 -7 -11 -15 0 -8 -4 -15 -10 -15 -5 0 -9 -4
-7 -9 1 -5 -16 -25 -37 -44 -42 -38 -90 -55 -172 -62 -28 -2 -55 -5 -60 -6 -5
-1 -11 0 -14 1 -3 1 -27 3 -55 4 -87 5 -93 9 -112 86 -2 8 -5 58 -6 110 -4
134 16 166 94 153 53 -8 88 -52 94 -118 5 -61 61 -72 107 -22 15 16 27 32 26
36 -1 3 4 24 10 47 7 22 13 60 15 85 1 24 6 50 10 57 5 6 4 12 0 12 -5 0 -10
19 -10 43 -1 23 -4 58 -7 77 -3 19 -7 41 -8 48 -1 6 -5 12 -9 12 -5 0 -6 6 -3
14 3 7 -8 25 -25 38 -48 41 -106 17 -115 -48 -14 -95 -21 -107 -65 -110 -16
-1 -34 -5 -40 -9 -6 -3 -11 -2 -11 2 0 5 -14 9 -31 9 -17 1 -34 7 -38 13 -12
18 -5 234 8 268 7 18 16 32 19 32 4 -1 9 0 12 1 14 8 208 6 228 -1 16 -6 21
-6 16 2 -3 6 7 4 24 -5 16 -8 32 -12 36 -9 3 4 6 0 6 -7 0 -7 3 -11 6 -7 6 5
35 -24 87 -88 39 -47 106 -45 131 4 20 38 24 75 14 139 -13 84 -69 175 -100
164 -5 -1 -8 2 -8 6 0 9 -27 12 -34 5z"/>
<path d="M2337 1234 c-3 -3 -36 -7 -74 -9 -108 -4 -162 -35 -210 -120 -10 -16
-18 -32 -18 -35 -1 -3 -11 -25 -24 -50 -13 -25 -24 -47 -23 -50 0 -3 -3 -9 -8
-15 -4 -5 -31 -55 -60 -110 -60 -116 -69 -128 -87 -121 -7 3 -13 1 -13 -5 0
-17 -47 24 -59 53 -7 15 -12 30 -11 34 1 4 -3 10 -8 13 -8 5 -25 35 -83 141
-7 14 -13 28 -14 32 0 4 -8 16 -17 28 -10 11 -16 20 -13 20 3 0 -5 17 -18 38
-12 20 -31 53 -41 73 -32 61 -59 72 -199 74 -176 4 -299 -35 -305 -96 -2 -26
16 -79 27 -77 3 1 23 -8 43 -21 54 -33 62 -66 62 -271 0 -159 -9 -387 -18
-450 -12 -93 -19 -111 -47 -131 -16 -11 -29 -18 -29 -14 0 3 -11 -4 -25 -17
-14 -14 -23 -31 -20 -43 2 -11 4 -25 4 -30 1 -16 61 -44 111 -53 25 -4 74 -7
110 -6 58 2 84 5 154 17 11 2 22 9 24 15 2 7 7 10 12 7 11 -7 30 19 36 49 3
18 -3 32 -23 50 -15 15 -31 26 -35 26 -4 0 -16 9 -26 20 -17 19 -19 36 -18
178 0 86 5 163 9 170 5 6 5 12 0 12 -4 0 -2 4 6 9 22 14 49 1 64 -32 18 -37
62 -137 84 -187 49 -111 137 -280 146 -282 36 -4 44 -3 60 14 18 18 41 67 39
80 -1 5 2 8 7 8 5 0 11 10 15 23 3 12 22 58 43 102 20 44 37 82 38 85 0 3 6
15 13 28 7 12 10 22 7 22 -4 0 1 7 9 16 9 8 14 20 11 25 -4 5 -1 9 4 9 6 0 11
7 11 15 0 8 5 15 10 15 6 0 10 6 10 13 0 18 43 37 60 27 13 -8 32 -130 20
-130 -3 0 -5 -40 -6 -88 -1 -94 -12 -124 -66 -170 -24 -20 -30 -50 -19 -93 2
-11 80 -40 122 -45 81 -11 279 -11 272 -1 -4 6 0 6 11 0 46 -25 197 44 182 83
-3 8 -1 14 4 14 18 0 -12 45 -43 65 -54 34 -65 78 -70 260 -1 33 -6 63 -12 67
-6 5 -5 8 3 8 8 0 10 5 5 12 -11 18 -10 52 2 61 7 6 7 10 0 13 -6 2 -9 21 -8
42 2 20 5 87 8 147 8 164 20 225 45 225 6 0 8 5 5 10 -3 6 -1 10 4 10 15 0 54
46 57 67 5 30 -25 78 -55 91 -34 15 -74 24 -116 26 -16 0 -33 4 -36 9 -3 4 -8
5 -12 1z"/>
<path d="M3217 1234 c-1 -1 -21 -5 -45 -9 -23 -3 -60 -12 -82 -20 -22 -8 -41
-15 -43 -15 -1 0 -12 -3 -24 -6 -13 -4 -23 -11 -23 -16 0 -5 -4 -7 -9 -4 -5 3
-14 -1 -21 -9 -7 -8 -16 -12 -21 -9 -5 3 -9 0 -9 -5 0 -6 -5 -11 -11 -11 -15
0 -95 -66 -138 -114 -20 -22 -42 -45 -48 -52 -7 -7 -13 -17 -13 -22 0 -5 -10
-22 -22 -37 -12 -16 -24 -38 -25 -49 -2 -10 -8 -25 -14 -33 -6 -7 -8 -13 -4
-13 4 0 3 -6 -3 -13 -6 -7 -14 -31 -18 -53 -9 -55 -13 -207 -6 -219 4 -5 7
-14 8 -20 9 -48 14 -65 27 -98 9 -21 17 -41 18 -45 4 -17 85 -129 114 -157 80
-77 111 -98 228 -148 39 -18 157 -46 192 -47 101 -3 155 0 155 9 0 3 10 7 23
7 33 2 55 9 127 39 36 14 89 33 117 41 29 7 62 23 73 34 28 28 81 125 73 133
-3 4 -2 7 4 7 6 0 10 19 8 48 -3 59 -2 55 -24 80 -20 24 -55 29 -76 9 -92 -82
-189 -108 -350 -94 -14 1 -25 5 -25 9 0 5 -3 7 -7 6 -30 -8 -173 106 -173 139
0 7 -3 13 -8 13 -17 0 -78 181 -67 200 3 5 3 10 -2 10 -7 0 -9 110 -3 118 2 1
3 5 4 10 25 110 104 174 206 166 50 -4 120 -25 120 -36 0 -5 5 -6 10 -3 6 3
10 1 10 -4 0 -6 6 -11 14 -11 17 0 70 -64 122 -149 22 -36 51 -72 65 -78 34
-18 100 -16 127 3 12 8 22 12 22 8 0 -4 14 10 30 31 17 21 30 44 30 51 0 8 6
14 13 14 7 0 8 3 2 8 -12 9 -14 62 -2 62 4 0 5 6 0 13 -4 6 -8 21 -9 32 -4 68
-36 142 -82 191 -35 38 -61 44 -125 31 -18 -4 -50 4 -95 22 -90 37 -162 54
-244 56 -38 1 -69 0 -71 -1z"/>
<path d="M4497 1234 c-1 -1 -18 -3 -37 -5 -19 -2 -40 -7 -47 -12 -7 -5 -16 -7
-20 -4 -4 3 -19 0 -33 -6 -14 -5 -33 -12 -43 -13 -29 -6 -132 -61 -146 -78 -8
-9 -18 -16 -23 -16 -10 0 -89 -79 -120 -120 -9 -13 -30 -48 -45 -79 -15 -31
-30 -58 -33 -61 -3 -3 -5 -9 -5 -15 -1 -5 -7 -37 -14 -70 -16 -69 -21 -161
-10 -191 4 -11 3 -27 -1 -35 -5 -8 -5 -16 0 -19 5 -3 11 -15 13 -25 14 -72 20
-95 28 -95 5 0 9 -6 9 -14 0 -31 62 -125 121 -185 50 -49 124 -103 131 -95 3
2 11 -2 18 -11 7 -8 21 -15 31 -15 11 0 19 -5 19 -11 0 -5 4 -8 9 -4 5 3 15 0
23 -7 13 -13 28 -16 95 -21 18 -1 33 -6 33 -10 0 -5 8 -7 18 -6 9 1 38 -1 64
-5 26 -5 52 -5 59 0 7 4 26 9 43 10 91 8 136 21 231 65 91 42 151 90 230 184
31 36 92 160 97 195 2 14 6 30 9 35 4 6 6 53 6 105 0 82 -12 155 -34 210 -4 8
-7 17 -8 20 -25 73 -89 167 -161 237 -67 65 -200 140 -261 148 -18 2 -37 6
-43 10 -9 6 -197 15 -203 9z m120 -312 c23 -25 40 -48 38 -50 -2 -3 6 -13 18
-24 12 -11 15 -16 7 -12 -11 6 -10 2 3 -13 9 -11 17 -25 17 -32 0 -6 9 -30 20
-51 11 -22 19 -40 16 -40 -2 0 2 -21 10 -46 7 -26 11 -50 9 -54 -3 -5 -1 -11
5 -15 5 -3 10 -24 10 -45 0 -21 5 -42 10 -45 7 -4 7 -11 2 -18 -12 -16 -11
-47 1 -47 6 0 5 -5 -1 -12 -6 -7 -13 -29 -17 -49 -8 -44 -62 -104 -95 -107
-60 -4 -100 0 -100 11 0 4 -4 6 -9 2 -5 -3 -16 4 -24 15 -7 11 -17 17 -20 13
-4 -3 -7 0 -7 8 0 8 -9 20 -20 27 -12 7 -18 17 -15 22 3 6 1 10 -5 10 -6 0 -8
5 -5 10 3 6 1 10 -4 10 -6 0 -11 9 -11 20 0 11 -4 20 -9 20 -4 0 -18 28 -30
63 -12 34 -25 69 -28 77 -15 38 -30 103 -37 162 -2 21 -7 42 -10 47 -3 5 0 11
6 14 10 3 10 8 2 16 -14 15 14 107 36 121 8 6 11 10 5 10 -13 0 55 44 73 46 8
2 16 5 19 7 14 15 102 -30 140 -71z"/>
<path d="M5881 1224 c-11 -8 -21 -12 -21 -9 0 4 -18 -13 -41 -37 -38 -40 -107
-158 -93 -158 4 0 2 -6 -4 -13 -28 -33 -26 -142 3 -180 20 -27 83 -47 114 -36
33 12 81 54 112 99 79 115 127 126 147 33 10 -44 8 -316 -2 -332 -4 -6 -3 -11
2 -11 5 0 9 -7 9 -15 0 -8 -3 -15 -6 -15 -3 0 -7 -28 -7 -63 -1 -54 -8 -139
-16 -202 -4 -27 -49 -77 -65 -71 -7 3 -13 2 -13 -2 0 -4 -9 -8 -21 -9 -48 -4
-64 -71 -26 -113 27 -31 102 -59 172 -64 11 0 23 -5 27 -11 5 -6 8 -5 8 3 0 9
6 10 18 4 14 -7 276 -9 292 -2 3 1 21 3 40 4 19 2 45 8 56 14 12 6 24 8 28 5
3 -3 6 -1 6 6 0 7 4 10 9 6 6 -3 23 7 39 23 22 21 28 36 26 61 -3 35 -20 53
-69 76 -16 7 -41 25 -54 39 -22 24 -25 35 -25 111 -1 47 -4 85 -8 85 -4 0 -3
14 2 30 5 19 5 28 -1 25 -5 -4 -5 4 1 19 5 15 6 28 0 31 -5 3 -7 11 -5 18 10
24 12 117 3 117 -5 0 -4 8 1 18 7 13 6 23 -1 30 -7 7 -8 12 -2 12 10 0 11 51
0 68 -4 7 -4 12 1 12 4 0 8 24 7 53 -1 59 8 82 36 97 29 15 62 -5 95 -58 17
-26 32 -51 34 -57 17 -39 79 -75 128 -75 66 0 137 69 119 115 -3 8 -1 15 5 15
6 0 8 3 5 8 -2 4 -7 27 -11 52 -4 24 -13 57 -21 72 -8 15 -12 28 -9 28 9 0
-56 92 -82 117 -13 13 -31 27 -41 32 -22 11 -112 5 -137 -11 -25 -15 -683 0
-731 17 -7 2 -21 -3 -33 -11z"/>
<path d="M10464 1231 c-2 -2 -122 -5 -267 -7 -276 -2 -317 -8 -339 -48 -16
-29 -21 -66 -8 -66 5 0 10 -7 10 -16 0 -9 17 -23 40 -32 22 -9 43 -25 46 -34
3 -10 9 -18 13 -18 10 0 7 -463 -3 -479 -4 -6 -2 -11 4 -11 6 0 8 -5 5 -11 -4
-6 -9 -52 -11 -102 -7 -162 -18 -201 -61 -212 -15 -3 -29 -6 -31 -5 -12 5 -48
-52 -46 -71 1 -13 3 -29 3 -36 1 -6 19 -23 41 -36 37 -22 50 -24 133 -21 94 3
302 4 440 1 42 -1 77 -6 77 -11 0 -4 7 -3 15 4 11 9 18 10 28 1 8 -6 17 -8 20
-4 4 3 28 8 54 9 53 3 68 6 133 25 25 7 47 13 50 14 3 0 15 6 26 13 12 6 24 8
28 5 3 -3 6 -1 6 5 0 7 7 12 15 12 8 0 15 5 15 12 0 6 3 9 6 5 8 -8 25 6 99
78 109 108 165 270 162 467 -1 60 -6 108 -11 108 -5 0 -7 3 -3 6 7 7 -21 104
-35 122 -6 6 -7 12 -4 12 8 0 -45 94 -56 98 -4 2 -8 8 -8 14 0 10 -47 58 -101
103 -40 33 -137 74 -218 90 -56 12 -259 24 -267 16z m15 -195 c10 -7 12 -5 6
3 -6 10 -3 11 13 2 11 -6 29 -11 39 -11 11 0 29 -9 41 -20 12 -12 22 -18 22
-14 0 13 48 -45 55 -66 3 -11 11 -20 17 -20 6 0 8 -3 5 -6 -3 -4 -1 -16 5 -28
6 -11 13 -30 14 -41 4 -25 12 -60 14 -60 6 0 12 -108 12 -190 -1 -116 -9 -187
-25 -212 -5 -7 -5 -17 -2 -23 3 -5 2 -10 -4 -10 -5 0 -13 -10 -17 -22 -8 -25
-75 -100 -82 -93 -3 3 -11 0 -18 -5 -24 -21 -108 -29 -155 -16 -51 14 -52 26
-52 431 0 367 0 375 20 393 22 19 68 23 92 8z"/>
<path d="M14307 1234 c-2 -2 -23 -6 -46 -9 -24 -3 -52 -10 -62 -16 -11 -5 -19
-7 -19 -3 0 3 -7 1 -15 -6 -8 -7 -15 -9 -15 -4 0 5 -4 4 -8 -1 -4 -6 -24 -19
-45 -30 -34 -17 -121 -96 -152 -136 -13 -16 -45 -95 -51 -124 -13 -61 3 -171
28 -202 6 -7 7 -13 2 -13 -5 0 0 -7 10 -15 11 -8 17 -15 13 -15 -12 0 56 -75
99 -110 32 -26 99 -65 107 -62 4 1 7 -2 7 -8 0 -5 8 -10 18 -10 10 0 22 -4 28
-10 5 -5 18 -11 29 -13 11 -1 25 -5 30 -8 6 -4 40 -16 76 -28 80 -26 126 -65
124 -103 -4 -54 -55 -87 -145 -90 -30 -2 -105 14 -114 23 -6 5 -18 9 -28 9
-10 0 -18 5 -18 10 0 6 -6 10 -13 10 -17 0 -69 49 -86 82 -8 15 -22 37 -33 47
-10 11 -18 24 -18 29 0 18 -69 62 -91 59 -30 -5 -62 -46 -56 -74 2 -13 0 -23
-5 -23 -5 0 -6 -10 -2 -22 3 -12 8 -37 10 -56 4 -38 22 -102 34 -117 5 -5 9
-13 9 -17 1 -4 10 -23 21 -42 14 -23 38 -41 78 -59 64 -28 198 -61 213 -52 5
4 9 3 9 -2 0 -16 162 -23 240 -10 25 4 59 9 75 11 17 2 41 8 55 14 14 5 30 10
35 12 6 1 37 16 70 33 69 37 155 117 176 164 7 18 17 33 21 33 3 0 5 8 4 18
-2 9 2 26 9 37 12 20 13 123 2 178 -8 40 -53 114 -89 145 -17 15 -36 32 -42
38 -15 14 -124 67 -129 62 -2 -1 -11 3 -20 11 -10 7 -17 11 -17 8 0 -3 -16 1
-35 9 -20 8 -40 12 -45 9 -6 -4 -10 -2 -10 3 0 4 -21 14 -47 21 -102 26 -158
92 -130 150 22 47 104 67 169 42 12 -5 28 -10 33 -11 17 -4 119 -86 153 -122
9 -10 22 -18 28 -18 7 0 14 -7 18 -15 9 -24 78 -19 109 8 15 12 27 28 27 35 0
7 4 12 9 12 16 0 2 101 -22 153 -25 55 -74 113 -117 141 -26 15 -56 14 -104
-4 -13 -5 -27 -6 -31 -2 -3 4 -12 7 -18 7 -7 1 -31 6 -55 13 -23 7 -46 10 -51
7 -5 -3 -11 -1 -13 5 -3 9 -173 22 -181 14z"/>
<path d="M534 1221 c-3 -3 -14 -7 -25 -7 -10 -1 -20 -2 -21 -4 -2 -1 -12 -3
-23 -5 -113 -18 -157 -48 -153 -102 1 -18 5 -33 8 -33 3 0 21 -14 40 -30 19
-16 38 -30 41 -30 8 0 33 -53 30 -64 -1 -4 2 -13 7 -20 7 -8 9 -365 3 -541 0
-11 -1 -29 -1 -40 0 -11 -2 -29 -4 -40 -3 -11 -5 -30 -5 -43 -1 -14 -23 -44
-56 -77 -51 -51 -54 -56 -44 -83 6 -18 24 -37 47 -48 20 -11 40 -23 44 -29 5
-6 8 -4 8 5 0 9 3 11 8 5 4 -5 18 -10 32 -10 14 0 30 -2 35 -5 13 -6 235 -6
235 0 0 3 12 6 28 6 68 3 112 10 112 16 0 5 3 7 8 7 37 -6 93 35 99 72 2 13 5
25 7 27 7 7 -28 43 -64 65 -36 22 -53 41 -57 67 -11 66 -19 376 -14 533 1 9 1
23 1 30 1 117 25 180 80 210 42 23 50 34 50 67 -1 50 -40 77 -138 96 -65 12
-307 16 -318 5z"/>
<path d="M7186 1223 c-3 -3 -27 -6 -53 -6 -51 1 -117 -19 -143 -42 -9 -8 -17
-30 -18 -49 -2 -32 2 -38 47 -68 27 -18 53 -42 56 -53 4 -11 9 -27 12 -35 7
-22 7 -543 0 -628 -6 -79 -10 -87 -74 -146 -30 -27 -43 -46 -43 -65 1 -29 21
-61 39 -61 6 0 11 -4 11 -9 0 -8 46 -24 53 -19 2 2 10 -2 18 -8 8 -5 24 -9 37
-8 12 0 22 -4 22 -9 0 -8 4 -7 11 0 7 7 20 8 33 4 23 -8 170 -7 258 3 67 7
107 21 129 44 19 21 31 62 18 62 -5 0 -8 3 -7 8 4 12 -26 52 -38 52 -19 0 -46
38 -52 72 -3 18 -5 82 -6 141 -1 123 3 131 69 122 38 -4 48 -12 94 -70 7 -10
34 -103 37 -130 0 -5 4 -17 7 -25 3 -8 15 -45 27 -82 28 -89 103 -190 133
-180 4 1 7 -3 7 -10 0 -6 3 -9 6 -5 4 3 19 0 35 -8 41 -22 230 -19 285 3 86
35 130 96 103 139 -11 19 -86 59 -101 55 -5 -1 -8 6 -9 16 0 9 -2 24 -4 32
-11 43 -15 68 -17 92 -1 16 -5 28 -8 28 -3 0 -7 11 -8 25 -3 35 -37 99 -69
130 -16 15 -52 38 -81 52 -29 14 -55 29 -58 34 -9 16 6 48 27 54 33 11 137
125 113 125 -4 0 0 8 8 18 21 24 21 150 0 204 -9 22 -32 57 -52 77 -35 37
-120 97 -120 85 0 -4 -7 -1 -15 6 -8 7 -15 9 -15 5 0 -4 -6 -2 -13 4 -8 6 -32
12 -54 14 -22 2 -44 6 -49 9 -5 3 -45 4 -89 2 -238 -9 -462 -11 -476 -3 -9 4
-19 5 -23 2z"/>
<path d="M12640 1223 c0 -4 -15 -8 -32 -7 -47 1 -89 -15 -115 -44 -13 -14 -23
-28 -24 -31 0 -3 -2 -14 -4 -23 -3 -16 45 -68 63 -68 17 0 54 -49 49 -64 -3
-8 -1 -16 5 -18 13 -5 15 -511 3 -618 -4 -36 -7 -71 -8 -78 0 -12 -27 -41 -89
-99 -10 -9 -18 -30 -18 -46 0 -51 63 -90 167 -103 69 -8 274 -12 288 -5 5 3
21 6 35 7 14 2 34 5 45 8 11 2 25 5 32 5 19 1 63 54 63 76 0 24 -34 78 -43 68
-4 -3 -7 -1 -7 5 0 6 -8 13 -18 16 -9 3 -22 22 -28 42 -16 48 -16 256 -1 269
34 29 110 8 139 -37 13 -20 39 -86 44 -113 1 -5 7 -30 15 -55 14 -50 17 -62
23 -87 3 -10 5 -20 6 -23 1 -3 2 -8 1 -12 0 -5 4 -8 9 -8 6 0 10 -7 10 -15 0
-43 64 -109 137 -141 44 -20 70 -24 151 -24 53 0 115 5 137 12 22 6 43 11 48
10 4 -1 7 3 7 8 0 6 5 10 11 10 15 0 34 20 53 57 15 29 15 34 -1 62 -12 20
-28 32 -49 36 -36 6 -52 21 -58 56 -3 13 -5 24 -6 24 -2 0 -6 20 -14 65 -19
116 -75 208 -143 236 -18 8 -36 14 -39 13 -9 -1 -44 43 -44 55 0 7 13 20 30
29 88 52 133 131 135 236 2 99 -31 172 -103 224 -40 30 -89 57 -112 61 -3 1
-11 5 -17 9 -7 5 -13 6 -13 2 0 -3 -15 1 -32 8 -21 8 -68 12 -128 10 -322 -8
-527 -9 -542 -1 -10 5 -18 5 -18 1z m466 -191 c22 -12 58 -53 62 -71 8 -37 8
-129 0 -158 -12 -45 -47 -83 -83 -89 -57 -11 -75 -11 -81 -2 -3 4 -10 6 -15 3
-5 -3 -6 1 -3 9 4 9 1 16 -6 16 -10 0 -10 3 -1 14 8 10 9 16 1 21 -6 4 -7 13
-2 23 5 9 8 59 8 109 -1 51 2 93 7 93 4 0 7 6 7 13 0 28 67 40 106 19z"/>
</g>
</svg>
